<?xml version="1.0" encoding="UTF-8"?>
<svg width="290px" height="293px" viewBox="0 0 290 293" version="1.1" xmlns="http://www.w3.org/2000/svg" xmlns:xlink="http://www.w3.org/1999/xlink">
    <!-- Generator: Sketch 59.1 (86144) - https://sketch.com -->
    <title>badgerdao-logo-white-text</title>
    <desc>Created with Sketch.</desc>
    <g id="Page-1" stroke="none" stroke-width="1" fill="none" fill-rule="evenodd">
        <g id="badgerdao-logo-white-text" fill-rule="nonzero">
            <path d="M289.876,267.871 C289.876,281.621 278.626,292.871 264.876,292.871 L25.124,292.871 C11.374,292.871 0.124023,281.621 0.124023,267.871 L0.124023,25.509003 C0.124023,11.759 11.374,0.509003 25.124,0.509003 L264.875,0.509003 C278.625,0.509003 289.876,11.759 289.876,25.509003 L289.876,267.871 Z" id="Path" fill="#F2A52B"></path>
            <polygon id="Path" fill="#FFFFFF" points="234.301 115.497 234.301 108.12 227.321 108.12 227.321 101.121 227.321 100.862 227.321 97.063 227.321 79.868 234.301 79.868 234.301 65.51 227.329 65.51 227.329 65.505 234.301 65.505 234.301 58.216 227.313 58.216 227.313 44.272 220.031 44.272 198.787 44.272 198.787 48.768 198.787 51.23 184.414 51.23 177.407 51.23 170.064 51.23 162.771 51.23 145 51.23 127.229 51.23 119.936 51.23 112.593 51.23 105.586 51.23 91.213 51.23 91.213 48.768 91.213 44.272 69.969 44.272 62.687 44.272 62.687 58.216 55.699 58.216 55.699 65.505 62.671 65.505 62.671 65.51 55.699 65.51 55.699 79.868 62.679 79.868 62.679 97.063 62.679 100.862 62.679 101.121 62.679 108.12 55.699 108.12 55.699 115.497 48.711 115.497 48.711 158.401 55.699 158.401 55.699 172.365 62.667 172.365 62.667 179.361 67.737 179.361 69.964 179.361 69.964 186.719 69.972 186.719 76.948 186.719 76.948 194.008 84.318 194.008 84.318 200.996 84.321 200.996 91.309 200.996 91.309 205.939 91.309 208.289 98.29 208.289 98.29 214.96 105.583 214.96 105.583 222.333 112.567 222.333 112.567 229.619 112.567 243.9 119.936 243.9 119.936 250.96 127.233 250.96 127.233 258.249 134.205 258.249 145 258.249 155.795 258.249 162.767 258.249 162.767 250.96 170.064 250.96 170.064 243.9 177.433 243.9 177.433 229.619 177.433 222.333 184.417 222.333 184.417 214.96 191.71 214.96 191.71 208.289 198.691 208.289 198.691 205.939 198.691 200.996 205.679 200.996 205.682 200.996 205.682 194.008 213.052 194.008 213.052 186.719 220.028 186.719 220.036 186.719 220.036 179.361 222.263 179.361 227.333 179.361 227.333 172.365 234.301 172.365 234.301 158.401 241.289 158.401 241.289 115.497"></polygon>
            <polygon id="Path" fill="#EBEAE6" points="128.229 186.715 127.229 186.715 127.229 214.956 128.229 214.956"></polygon>
            <polygon id="Path" fill="#EBEAE6" points="124.581 54.573 123.581 54.573 123.581 61.866 124.581 61.866"></polygon>
            <polygon id="Path" fill="#C1C1C3" points="69.964 136.747 76.96 136.747 76.96 108.109 69.964 108.109 69.964 101.121 62.679 101.121 62.679 108.12 69.964 108.12"></polygon>
            <polygon id="Path" fill="#C1C1C3" points="84.322 136.747 76.96 136.747 76.96 151.097 84.322 151.097"></polygon>
            <polygon id="Path" fill="#C1C1C3" points="98.282 194.016 98.282 200.996 105.583 200.996 105.583 186.715 98.292 186.715 98.292 165.365 91.314 165.365 91.314 151.104 84.321 151.104 84.321 165.378 91.306 165.378 91.306 186.719 84.318 186.719 84.318 194.008 84.318 200.996 84.321 200.996 84.321 194.016"></polygon>
            <polygon id="Path" fill="#C1C1C3" points="84.318 179.349 76.948 179.349 76.948 172.365 69.972 172.365 69.972 179.361 76.948 179.361 76.948 186.719 84.318 186.719"></polygon>
            <path d="M127.233,79.875 L127.233,65.457 L127.229,65.457 L127.229,58.221 L119.936,58.221 L119.936,58.217 L119.936,51.229 L112.593,51.229 L105.586,51.229 L105.586,58.221 L98.289,58.221 L98.289,65.514 L84.317,65.514 L84.317,51.229 L69.964,51.229 L69.969,58.216 L69.964,58.216 L69.964,58.218 L62.686,58.218 L62.686,65.505 L62.671,65.505 L62.671,65.511 L55.698,65.511 L55.698,79.868 L62.678,79.868 L62.678,97.063 L62.678,100.862 L62.678,101.121 L69.963,101.121 L69.963,108.109 L76.958,108.109 L76.958,136.747 L84.32,136.747 L84.32,151.097 L84.32,151.105 L91.313,151.105 L91.313,165.366 L98.291,165.366 L98.291,186.716 L105.581,186.716 L105.581,200.997 L98.28,200.997 L98.28,194.017 L84.32,194.017 L84.32,200.997 L91.308,200.997 L91.308,205.94 L91.308,208.29 L98.288,208.29 L98.288,214.961 L105.581,214.961 L105.581,222.334 L112.565,222.334 L119.93,222.334 L119.93,214.957 L126.599,214.957 L127.226,214.957 L127.226,186.716 L127.23,186.716 L134.214,186.716 L134.214,151.1 L127.23,151.1 L127.23,151.089 L127.226,151.089 L127.226,93.836 L127.23,93.836 L134.21,93.836 L134.214,93.836 L134.214,79.914 L134.214,79.876 L127.233,79.876 L127.233,79.875 Z M112.593,165.385 L108.382,165.385 L105.582,165.385 L105.582,158.336 L108.382,158.336 L112.593,158.336 L112.593,165.385 Z" id="Shape" fill="#1F1C22"></path>
            <polygon id="Path" fill="#1F1C22" points="84.317 186.719 76.948 186.719 76.948 194.008 84.317 194.008"></polygon>
            <polygon id="Path" fill="#EBEAE6" points="62.687 58.217 62.687 58.216 55.699 58.216 55.699 65.505 62.671 65.505 62.671 58.217"></polygon>
            <polygon id="Path" fill="#EBEAE6" points="63.671 58.217 62.671 58.217 62.671 65.504 63.671 65.504"></polygon>
            <polygon id="Path" fill="#EBEAE6" points="69.964 51.23 84.318 51.23 84.318 65.514 98.29 65.514 98.29 58.221 105.586 58.221 105.586 51.23 91.213 51.23 91.213 48.768 91.213 44.272 69.969 44.272 62.687 44.272 62.687 58.216 69.964 58.216"></polygon>
            <polygon id="Path" fill="#EBEAE6" points="69.969 58.216 69.964 51.23 69.964 58.216"></polygon>
            <polygon id="Path" fill="#1F1C22" points="70.964 179.361 69.964 179.361 69.964 186.719 70.964 186.719"></polygon>
            <polygon id="Path" fill="#1F1C22" points="76.948 179.361 69.972 179.361 69.972 186.719 76.948 186.719"></polygon>
            <polygon id="Path" fill="#EBEAE6" points="84.321 165.378 84.321 151.104 84.321 151.097 76.96 151.097 76.96 136.747 69.964 136.747 69.964 108.12 62.679 108.12 55.699 108.12 55.699 115.497 48.711 115.497 48.711 158.401 55.699 158.401 55.699 172.365 62.667 172.365 62.667 179.361 67.737 179.361 69.964 179.361 69.972 179.361 69.972 172.365 76.948 172.365 76.948 179.349 84.318 179.349 84.318 186.719 91.306 186.719 91.306 165.378"></polygon>
            <polygon id="Path" fill="#C1C1C3" points="127.229 214.956 126.602 214.956 119.932 214.956 119.932 222.333 112.567 222.333 112.567 229.619 119.936 229.619 127.233 229.619 127.233 222.333 127.233 214.96 127.233 214.956"></polygon>
            <polygon id="Path" fill="#C1C1C3" points="127.233 214.96 134.217 214.96 134.217 186.715 127.233 186.715 127.233 214.956"></polygon>
            <polygon id="Path" fill="#C1C1C3" points="134.213 93.836 127.233 93.836 127.233 151.089 134.213 151.089"></polygon>
            <polygon id="Path" fill="#C1C1C3" points="128.229 93.836 127.229 93.836 127.229 151.089 128.229 151.089"></polygon>
            <polygon id="Path" fill="#C1C1C3" points="141.201 79.913 134.217 79.913 134.217 93.835 141.201 93.835"></polygon>
            <polygon id="Path" fill="#C1C1C3" points="134.213 58.217 127.229 58.217 127.229 58.221 127.233 58.221 127.233 65.457 134.213 65.457"></polygon>
            <polygon id="Path" fill="#C1C1C3" points="128.229 58.221 127.229 58.221 127.229 65.457 128.229 65.457"></polygon>
            <polygon id="Path" fill="#C1C1C3" points="127.229 51.23 119.936 51.23 119.936 58.218 127.229 58.218"></polygon>
            <polygon id="Path" fill="#C1C1C3" points="119.936 229.619 112.567 229.619 112.567 243.9 119.936 243.9"></polygon>
            <polygon id="Path" fill="#C1C1C3" points="127.233 243.9 119.936 243.9 119.936 250.96 127.233 250.96"></polygon>
            <polygon id="Path" fill="#C1C1C3" points="134.206 250.96 127.233 250.96 127.233 258.249 134.206 258.249"></polygon>
            <polygon id="Path" fill="#FFFFFF" points="108.382 158.336 105.583 158.336 105.583 165.385 108.382 165.385 112.593 165.385 112.593 158.336"></polygon>
            <polygon id="Path" fill="#EBEAE6" points="167.416 54.573 166.416 54.573 166.416 61.866 167.416 61.866"></polygon>
            <polygon id="Path" fill="#EBEAE6" points="162.771 58.217 162.771 51.23 145 51.23 127.229 51.23 127.229 58.217 134.213 58.217 134.213 65.457 127.233 65.457 127.233 79.875 134.217 79.875 134.217 79.913 141.201 79.913 141.201 93.836 134.217 93.836 134.213 93.836 134.213 151.089 127.233 151.089 127.233 151.1 134.217 151.1 134.217 186.715 134.217 214.96 127.233 214.96 127.233 222.333 145 222.333 162.767 222.333 162.767 214.96 155.783 214.96 155.783 186.715 155.783 151.1 162.767 151.1 162.767 151.089 155.787 151.089 155.787 93.836 155.783 93.836 148.799 93.836 148.799 79.913 155.783 79.913 155.783 79.875 162.767 79.875 162.767 65.457 155.787 65.457 155.787 58.217"></polygon>
            <polygon id="Path" fill="#EBEAE6" points="163.767 186.715 162.767 186.715 162.767 214.956 163.767 214.956"></polygon>
            <polygon id="Path" fill="#C1C1C3" points="198.694 186.719 198.694 165.378 205.679 165.378 205.679 151.104 198.686 151.104 198.686 165.365 191.708 165.365 191.708 186.715 184.417 186.715 184.417 200.996 191.718 200.996 191.718 194.016 205.679 194.016 205.679 200.996 205.682 200.996 205.682 194.008 205.682 186.719"></polygon>
            <polygon id="Path" fill="#C1C1C3" points="220.028 179.361 220.028 172.365 213.052 172.365 213.052 179.349 205.682 179.349 205.682 186.719 213.052 186.719 213.052 179.361"></polygon>
            <polygon id="Path" fill="#C1C1C3" points="220.036 108.109 213.04 108.109 213.04 136.747 220.036 136.747 220.036 108.12 227.321 108.12 227.321 101.121 220.036 101.121"></polygon>
            <polygon id="Path" fill="#C1C1C3" points="213.041 136.747 205.679 136.747 205.679 151.097 213.041 151.097"></polygon>
            <path d="M227.329,65.51 L227.329,65.504 L227.314,65.504 L227.314,58.217 L220.036,58.217 L220.036,58.215 L220.031,58.215 L220.036,51.229 L205.683,51.229 L205.683,65.514 L191.71,65.514 L191.71,58.221 L184.413,58.221 L184.413,51.229 L177.406,51.229 L170.063,51.229 L170.063,58.217 L170.063,58.221 L162.77,58.221 L162.77,65.457 L162.766,65.457 L162.766,79.875 L155.782,79.875 L155.782,79.913 L155.782,93.835 L155.786,93.835 L162.766,93.835 L162.77,93.835 L162.77,151.088 L162.766,151.088 L162.766,151.099 L155.782,151.099 L155.782,186.714 L162.766,186.714 L162.77,186.714 L162.77,214.955 L163.397,214.955 L170.066,214.955 L170.066,222.332 L177.431,222.332 L184.415,222.332 L184.415,214.959 L191.708,214.959 L191.708,208.288 L198.688,208.288 L198.688,205.938 L198.688,200.995 L205.676,200.995 L205.676,194.015 L191.716,194.015 L191.716,200.995 L184.415,200.995 L184.415,186.714 L191.705,186.714 L191.705,165.364 L198.683,165.364 L198.683,151.103 L205.676,151.103 L205.676,151.095 L205.676,136.745 L213.038,136.745 L213.038,108.107 L220.034,108.107 L220.034,101.119 L227.319,101.119 L227.319,100.86 L227.319,97.061 L227.319,79.866 L234.299,79.866 L234.299,65.51 L227.329,65.51 Z M184.417,165.385 L181.617,165.385 L177.406,165.385 L177.406,158.336 L181.617,158.336 L184.417,158.336 L184.417,165.385 Z" id="Shape" fill="#1F1C22"></path>
            <polygon id="Path" fill="#1F1C22" points="213.052 186.719 205.683 186.719 205.683 194.008 213.052 194.008"></polygon>
            <polygon id="Path" fill="#EBEAE6" points="227.329 58.217 227.329 65.505 234.301 65.505 234.301 58.216 227.313 58.216 227.313 58.217"></polygon>
            <polygon id="Path" fill="#EBEAE6" points="228.314 58.217 227.314 58.217 227.314 65.504 228.314 65.504"></polygon>
            <polygon id="Path" fill="#EBEAE6" points="191.71 58.221 191.71 65.514 205.682 65.514 205.682 51.23 220.036 51.23 220.036 58.216 227.313 58.216 227.313 44.272 220.031 44.272 198.787 44.272 198.787 48.768 198.787 51.23 184.414 51.23 184.414 58.221"></polygon>
            <polygon id="Path" fill="#EBEAE6" points="220.031 58.216 220.036 58.216 220.036 51.23"></polygon>
            <polygon id="Path" fill="#1F1C22" points="221.028 179.361 220.028 179.361 220.028 186.719 221.028 186.719"></polygon>
            <polygon id="Path" fill="#1F1C22" points="220.028 179.361 213.052 179.361 213.052 186.719 220.028 186.719"></polygon>
            <polygon id="Path" fill="#EBEAE6" points="234.301 115.497 234.301 108.12 227.321 108.12 220.036 108.12 220.036 136.747 213.04 136.747 213.04 151.097 205.679 151.097 205.679 151.104 205.679 165.378 198.694 165.378 198.694 186.719 205.682 186.719 205.682 179.349 213.052 179.349 213.052 172.365 220.028 172.365 220.028 179.361 220.036 179.361 222.263 179.361 227.333 179.361 227.333 172.365 234.301 172.365 234.301 158.401 241.289 158.401 241.289 115.497"></polygon>
            <polygon id="Path" fill="#C1C1C3" points="170.068 222.333 170.068 214.956 163.398 214.956 162.771 214.956 162.767 214.956 162.767 214.96 162.767 222.333 162.767 229.619 170.064 229.619 177.433 229.619 177.433 222.333"></polygon>
            <polygon id="Path" fill="#C1C1C3" points="162.767 186.715 155.783 186.715 155.783 214.96 162.767 214.96 162.767 214.956"></polygon>
            <polygon id="Path" fill="#C1C1C3" points="162.767 93.836 155.787 93.836 155.787 151.089 162.767 151.089"></polygon>
            <polygon id="Path" fill="#C1C1C3" points="163.767 93.836 162.767 93.836 162.767 151.089 163.767 151.089"></polygon>
            <polygon id="Path" fill="#C1C1C3" points="155.783 79.913 148.799 79.913 148.799 93.835 155.783 93.835"></polygon>
            <polygon id="Path" fill="#C1C1C3" points="162.771 58.221 162.771 58.217 155.787 58.217 155.787 65.457 162.767 65.457 162.767 58.221"></polygon>
            <polygon id="Path" fill="#C1C1C3" points="163.767 58.221 162.767 58.221 162.767 65.457 163.767 65.457"></polygon>
            <polygon id="Path" fill="#C1C1C3" points="170.064 51.23 162.771 51.23 162.771 58.218 170.064 58.218"></polygon>
            <polygon id="Path" fill="#C1C1C3" points="177.433 229.619 170.064 229.619 170.064 243.9 177.433 243.9"></polygon>
            <polygon id="Path" fill="#C1C1C3" points="170.064 243.9 162.767 243.9 162.767 250.96 170.064 250.96"></polygon>
            <polygon id="Path" fill="#C1C1C3" points="162.768 250.96 155.795 250.96 155.795 258.249 162.768 258.249"></polygon>
            <polygon id="Path" fill="#1F1C22" points="162.767 229.619 162.767 222.333 145 222.333 127.233 222.333 127.233 229.619 119.936 229.619 119.936 243.9 127.233 243.9 127.233 250.96 134.205 250.96 134.205 258.249 145 258.249 155.795 258.249 155.795 250.96 162.767 250.96 162.767 243.9 170.064 243.9 170.064 229.619"></polygon>
            <polygon id="Path" fill="#FFFFFF" points="181.618 158.336 177.407 158.336 177.407 165.385 181.618 165.385 184.417 165.385 184.417 158.336"></polygon>
        </g>
    </g>
</svg>